# xmcd CD database file generated by Grip 3.0.7
# 
# Track frame offsets:
#       150
#       18738
#       35815
#       54403
# 
# Disc length: 948 seconds
# 
# Revision: 3
# Processed by: cddbd v1.5.1PL0 Copyright (c) Steve Scherf et al.
# Submitted via: Grip 3.0.7
# 
DISCID=3103b204
DTITLE=Yuki Kajiura - Hitomi no Kakera
DYEAR=2004
DGENRE=Other
TTITLE0=Hitomi no Kakera
TTITLE1=Nowhere
TTITLE2=Hitomi no Kakera (karaoke)
TTITLE3=Nowhere (karaoke)
EXTD=YEAR: 1996
EXTT0=
EXTT1=
EXTT2=
EXTT3=
PLAYORDER=
